<svg width="111" height="44" viewBox="0 0 111 44" fill="none" xmlns="http://www.w3.org/2000/svg">
<path d="M107.515 40.9478C107.447 41.0175 107.384 41.0925 107.328 41.1728C107.275 41.2542 107.229 41.3398 107.19 41.4286C107.153 41.519 107.124 41.6121 107.104 41.7073C107.084 41.803 107.074 41.9003 107.073 41.9976C107.073 42.3928 107.233 42.7715 107.517 43.0507C107.801 43.3299 108.186 43.4867 108.588 43.4867C108.687 43.4867 108.786 43.4766 108.883 43.457C108.98 43.4384 109.075 43.4102 109.166 43.3719C109.257 43.3357 109.344 43.29 109.426 43.2368C109.508 43.182 109.585 43.1203 109.655 43.0517C109.726 42.9847 109.789 42.9092 109.841 42.8273C109.897 42.7465 109.944 42.6608 109.982 42.571C110.019 42.4811 110.048 42.3885 110.068 42.2939C110.107 42.1024 110.107 41.9051 110.068 41.7131C110.048 41.6179 110.019 41.5249 109.982 41.435C109.944 41.3451 109.897 41.2589 109.841 41.1786C109.788 41.0973 109.725 41.0218 109.655 40.9537C109.585 40.8851 109.509 40.8234 109.426 40.7691C109.344 40.716 109.257 40.6708 109.166 40.6335C109.075 40.5958 108.98 40.567 108.883 40.549C108.388 40.4511 107.876 40.6006 107.515 40.9478Z" fill="url(#paint0_linear_526_856)"/>
<path d="M20.6693 2.71918C32.0654 2.71918 41.3376 11.8368 41.3376 23.0445C41.3533 27.4782 39.8812 31.7935 37.1491 35.3205C36.6207 35.8837 35.7446 35.9608 35.1232 35.4987C34.5019 35.037 34.338 34.1872 34.7447 33.5335C37.0755 30.5235 38.3318 26.8411 38.3193 23.0577C38.3231 18.4538 36.4665 14.037 33.158 10.779C29.8494 7.521 25.3608 5.68943 20.6785 5.68739C15.9969 5.68526 11.506 7.51202 8.19417 10.7663C4.88231 14.0205 3.02092 18.4357 3.01981 23.0396C3.01873 27.6441 4.87746 32.0599 8.18766 35.3162C11.4979 38.572 15.9876 40.4016 20.6698 40.4016H35.2452C36.0299 40.4659 105.576 41.1897 105.576 41.964C105.576 42.7378 36.0298 43.3042 35.2452 43.369H20.6684C9.27223 43.369 7.03618e-05 34.2514 7.03618e-05 23.0437C7.03618e-05 11.8367 9.27209 2.71844 20.6684 2.71844L20.6693 2.71918Z" fill="url(#paint1_linear_526_856)"/>
<path d="M21.5189 34.0541C19.0249 34.0541 17.0326 33.4951 15.5419 32.3771C14.0512 31.2591 13.3059 29.7971 13.3059 27.9911V27.6471C13.3059 27.5038 13.3489 27.3891 13.4349 27.3031C13.5496 27.1885 13.6786 27.1311 13.8219 27.1311H17.5629C17.7062 27.1311 17.8209 27.1885 17.9069 27.3031C18.0216 27.3891 18.0789 27.5038 18.0789 27.6471V27.7761C18.0789 28.4641 18.4086 29.0661 19.0679 29.5821C19.7272 30.0695 20.5442 30.3131 21.5189 30.3131C22.4649 30.3131 23.2246 30.0838 23.7979 29.6251C24.3999 29.1665 24.7009 28.5931 24.7009 27.9051C24.7009 27.2171 24.3999 26.6868 23.7979 26.3141C23.2246 25.9415 22.3216 25.5401 21.0889 25.1101L19.9709 24.7231C18.0216 24.0925 16.4592 23.3041 15.2839 22.3581C14.1086 21.3835 13.5209 19.9501 13.5209 18.0581C13.5209 16.0515 14.2376 14.4748 15.6709 13.3281C17.1042 12.1528 18.9962 11.5651 21.3469 11.5651C23.7836 11.5651 25.7186 12.1671 27.1519 13.3711C28.6139 14.5465 29.3449 16.1231 29.3449 18.1011V18.1441C29.3449 18.2875 29.2876 18.4165 29.1729 18.5311C29.0869 18.6171 28.9722 18.6601 28.8289 18.6601H25.2169C25.0736 18.6601 24.9446 18.6171 24.8299 18.5311C24.7439 18.4165 24.7009 18.2875 24.7009 18.1441V17.9721C24.7009 17.2555 24.3999 16.6678 23.7979 16.2091C23.1959 15.7218 22.4076 15.4781 21.4329 15.4781C20.4869 15.4781 19.7272 15.7075 19.1539 16.1661C18.5806 16.5961 18.2939 17.1551 18.2939 17.8431C18.2939 18.3878 18.4946 18.8465 18.8959 19.2191C19.2972 19.5631 19.7416 19.8355 20.2289 20.0361C20.7449 20.2368 21.6336 20.5521 22.8949 20.9821C24.2422 21.4408 25.3746 21.9138 26.2919 22.4011C27.2379 22.8885 28.0406 23.5621 28.6999 24.4221C29.3592 25.2821 29.6889 26.3715 29.6889 27.6901C29.6889 29.6681 28.9436 31.2305 27.4529 32.3771C25.9909 33.4951 24.0129 34.0541 21.5189 34.0541Z" fill="#F6F6FB"/>
<path d="M53.2191 15.354C54.8738 15.354 56.1658 15.8753 57.0951 16.918C58.0245 17.9607 58.4891 19.4 58.4891 21.236V32.592C58.4891 32.7053 58.4438 32.8073 58.3531 32.898C58.2851 32.966 58.1945 33 58.0811 33H54.9531C54.8398 33 54.7378 32.966 54.6471 32.898C54.5791 32.8073 54.5451 32.7053 54.5451 32.592V21.78C54.5451 20.8507 54.3071 20.114 53.8311 19.57C53.3778 19.026 52.7545 18.754 51.9611 18.754C51.1451 18.754 50.4878 19.0373 49.9891 19.604C49.5131 20.148 49.2751 20.8847 49.2751 21.814V32.592C49.2751 32.7053 49.2298 32.8073 49.1391 32.898C49.0711 32.966 48.9805 33 48.8671 33H45.7391C45.6258 33 45.5238 32.966 45.4331 32.898C45.3651 32.8073 45.3311 32.7053 45.3311 32.592V9.608C45.3311 9.49467 45.3651 9.404 45.4331 9.336C45.5238 9.24533 45.6258 9.2 45.7391 9.2H48.8671C48.9805 9.2 49.0711 9.24533 49.1391 9.336C49.2298 9.404 49.2751 9.49467 49.2751 9.608V16.918C49.2751 16.986 49.2978 17.0313 49.3431 17.054C49.3885 17.0767 49.4338 17.054 49.4791 16.986C50.3858 15.898 51.6325 15.354 53.2191 15.354ZM62.8143 13.246C62.1116 13.246 61.5336 13.0193 61.0803 12.566C60.6496 12.1127 60.4343 11.5347 60.4343 10.832C60.4343 10.1293 60.6496 9.55133 61.0803 9.098C61.5336 8.64467 62.1116 8.418 62.8143 8.418C63.5396 8.418 64.1176 8.64467 64.5483 9.098C65.0016 9.52867 65.2283 10.1067 65.2283 10.832C65.2283 11.5347 65.0016 12.1127 64.5483 12.566C64.095 13.0193 63.517 13.246 62.8143 13.246ZM61.2503 33C61.137 33 61.035 32.966 60.9443 32.898C60.8763 32.8073 60.8423 32.7053 60.8423 32.592V16C60.8423 15.8867 60.8763 15.796 60.9443 15.728C61.035 15.6373 61.137 15.592 61.2503 15.592H64.3783C64.4916 15.592 64.5823 15.6373 64.6503 15.728C64.741 15.796 64.7863 15.8867 64.7863 16V32.592C64.7863 32.7053 64.741 32.8073 64.6503 32.898C64.5823 32.966 64.4916 33 64.3783 33H61.2503ZM75.2022 15.354C76.8569 15.354 78.1489 15.8753 79.0782 16.918C80.0076 17.9607 80.4722 19.4 80.4722 21.236V32.592C80.4722 32.7053 80.4269 32.8073 80.3362 32.898C80.2682 32.966 80.1776 33 80.0642 33H76.9362C76.8229 33 76.7209 32.966 76.6302 32.898C76.5622 32.8073 76.5282 32.7053 76.5282 32.592V21.78C76.5282 20.8507 76.2902 20.114 75.8142 19.57C75.3609 19.026 74.7376 18.754 73.9442 18.754C73.1282 18.754 72.4709 19.0373 71.9722 19.604C71.4962 20.148 71.2582 20.8847 71.2582 21.814V32.592C71.2582 32.7053 71.2129 32.8073 71.1222 32.898C71.0542 32.966 70.9636 33 70.8502 33H67.7222C67.6089 33 67.5069 32.966 67.4162 32.898C67.3482 32.8073 67.3142 32.7053 67.3142 32.592V16.034C67.3142 15.9207 67.3482 15.83 67.4162 15.762C67.5069 15.6713 67.6089 15.626 67.7222 15.626H70.8502C70.9636 15.626 71.0542 15.6713 71.1222 15.762C71.2129 15.83 71.2582 15.9207 71.2582 16.034V16.918C71.2582 16.986 71.2809 17.0313 71.3262 17.054C71.3716 17.0767 71.4169 17.054 71.4622 16.986C72.3689 15.898 73.6156 15.354 75.2022 15.354ZM95.815 21.406C95.883 22.154 95.917 23.0153 95.917 23.99L95.883 25.452C95.883 25.724 95.747 25.86 95.475 25.86H86.363C86.2497 25.86 86.193 25.9167 86.193 26.03C86.2383 26.6647 86.2837 27.1293 86.329 27.424C86.4423 28.172 86.7597 28.7727 87.281 29.226C87.8023 29.6793 88.4597 29.906 89.253 29.906C89.933 29.8833 90.4997 29.7133 90.953 29.396C91.429 29.0787 91.7917 28.6367 92.041 28.07C92.1543 27.8207 92.3243 27.73 92.551 27.798L95.339 28.376C95.611 28.4667 95.7017 28.6367 95.611 28.886C95.1577 30.2913 94.3757 31.3793 93.265 32.15C92.177 32.898 90.8397 33.272 89.253 33.272C87.3717 33.272 85.8643 32.8187 84.731 31.912C83.5977 31.0053 82.861 29.7473 82.521 28.138C82.4077 27.526 82.3283 26.88 82.283 26.2C82.2603 25.52 82.249 24.6133 82.249 23.48C82.249 22.3013 82.3057 21.406 82.419 20.794C82.6457 19.1393 83.3483 17.8247 84.527 16.85C85.7057 15.8527 87.2017 15.354 89.015 15.354C90.987 15.354 92.5737 15.9093 93.775 17.02C94.999 18.1307 95.679 19.5927 95.815 21.406ZM89.049 18.754C88.301 18.754 87.6777 18.9807 87.179 19.434C86.703 19.8647 86.4083 20.454 86.295 21.202C86.227 21.7007 86.193 22.2673 86.193 22.902C86.193 23.0153 86.2497 23.072 86.363 23.072H91.769C91.8823 23.072 91.939 23.0153 91.939 22.902C91.8937 22.1313 91.8483 21.576 91.803 21.236C91.7123 20.488 91.4177 19.8873 90.919 19.434C90.4203 18.9807 89.797 18.754 89.049 18.754Z" fill="#F6F6FB"/>
<path d="M103.528 5.1C103.551 5.1 103.57 5.10933 103.584 5.128C103.603 5.142 103.612 5.16067 103.612 5.184V6.017C103.612 6.04033 103.603 6.06133 103.584 6.08C103.57 6.094 103.551 6.101 103.528 6.101H102.478C102.455 6.101 102.443 6.11267 102.443 6.136V9.916C102.443 9.93933 102.434 9.96033 102.415 9.979C102.401 9.993 102.382 10 102.359 10H101.365C101.342 10 101.321 9.993 101.302 9.979C101.288 9.96033 101.281 9.93933 101.281 9.916V6.136C101.281 6.11267 101.269 6.101 101.246 6.101H100.238C100.215 6.101 100.194 6.094 100.175 6.08C100.161 6.06133 100.154 6.04033 100.154 6.017V5.184C100.154 5.16067 100.161 5.142 100.175 5.128C100.194 5.10933 100.215 5.1 100.238 5.1H103.528ZM106.763 5.156C106.781 5.11867 106.814 5.1 106.861 5.1H107.848C107.871 5.1 107.89 5.10933 107.904 5.128C107.922 5.142 107.932 5.16067 107.932 5.184V9.916C107.932 9.93933 107.922 9.96033 107.904 9.979C107.89 9.993 107.871 10 107.848 10H106.854C106.83 10 106.809 9.993 106.791 9.979C106.777 9.96033 106.77 9.93933 106.77 9.916V7.011C106.77 6.99233 106.765 6.983 106.756 6.983C106.746 6.97833 106.737 6.983 106.728 6.997L106.182 7.907C106.163 7.94433 106.13 7.963 106.084 7.963H105.888C105.841 7.963 105.808 7.94433 105.79 7.907L105.244 6.997C105.234 6.983 105.225 6.97833 105.216 6.983C105.206 6.983 105.202 6.99233 105.202 7.011V9.916C105.202 9.93933 105.192 9.96033 105.174 9.979C105.16 9.993 105.141 10 105.118 10H104.124C104.1 10 104.079 9.993 104.061 9.979C104.047 9.96033 104.04 9.93933 104.04 9.916V5.184C104.04 5.16067 104.047 5.142 104.061 5.128C104.079 5.10933 104.1 5.1 104.124 5.1H105.111C105.157 5.1 105.19 5.11867 105.209 5.156L105.965 6.43C105.979 6.458 105.993 6.458 106.007 6.43L106.763 5.156Z" fill="white"/>
<defs>
<linearGradient id="paint0_linear_526_856" x1="135.47" y1="40.3504" x2="135.47" y2="43.3176" gradientUnits="userSpaceOnUse">
<stop stop-color="#ED1E79"/>
<stop offset="0.0001" stop-color="#7166F9"/>
<stop offset="0.9998" stop-color="#E17CFD"/>
<stop offset="0.9999" stop-color="#4CD7F5"/>
<stop offset="1" stop-color="#79D2C6"/>
</linearGradient>
<linearGradient id="paint1_linear_526_856" x1="20.6689" y1="2.71844" x2="20.6689" y2="43.369" gradientUnits="userSpaceOnUse">
<stop stop-color="#7166F9"/>
<stop offset="0.510417" stop-color="#4CD7F5"/>
<stop offset="1" stop-color="#E17CFD"/>
</linearGradient>
</defs>
</svg>
