<svg width="18" height="18" viewBox="0 0 18 18" fill="none" xmlns="http://www.w3.org/2000/svg">
<path d="M16.245 7.83001L15.51 10.965C14.88 13.6725 13.635 14.7675 11.295 14.5425C10.92 14.5125 10.515 14.445 10.08 14.34L8.82001 14.04C5.69251 13.2975 4.72501 11.7525 5.46001 8.61751L6.19501 5.47501C6.34501 4.83751 6.52501 4.28251 6.75001 3.82501C7.62751 2.01001 9.12001 1.52251 11.625 2.11501L12.8775 2.40751C16.02 3.14251 16.98 4.69501 16.245 7.83001Z" stroke="#7166F9" stroke-width="1.6" stroke-linecap="round" stroke-linejoin="round"/>
<path d="M11.295 14.5425C10.83 14.8575 10.245 15.12 9.53251 15.3525L8.34751 15.7425C5.37001 16.7025 3.80251 15.9 2.83501 12.9225L1.87501 9.96001C0.915012 6.98251 1.71001 5.40751 4.68751 4.44751L5.87251 4.05751C6.18001 3.96001 6.47251 3.87751 6.75001 3.82501C6.52501 4.28251 6.34501 4.83751 6.19501 5.47501L5.46001 8.61751C4.72501 11.7525 5.69251 13.2975 8.82001 14.04L10.08 14.34C10.515 14.445 10.92 14.5125 11.295 14.5425Z" stroke="#7166F9" stroke-width="1.6" stroke-linecap="round" stroke-linejoin="round"/>
<path d="M9.47998 6.39752L13.1175 7.32002" stroke="#7166F9" stroke-width="1.6" stroke-linecap="round" stroke-linejoin="round"/>
<path d="M8.745 9.29999L10.92 9.85499" stroke="#7166F9" stroke-width="1.6" stroke-linecap="round" stroke-linejoin="round"/>
</svg>
