<svg width="100" height="44" viewBox="0 0 140 44" fill="none" xmlns="http://www.w3.org/2000/svg">
<path d="M107.515 41.2047C107.446 41.2743 107.384 41.3493 107.327 41.4296C107.274 41.511 107.228 41.5966 107.19 41.6854C107.153 41.7758 107.124 41.8689 107.104 41.9641C107.084 42.0598 107.074 42.1572 107.073 42.2545C107.073 42.6496 107.233 43.0283 107.517 43.3075C107.801 43.5867 108.186 43.7436 108.587 43.7436C108.686 43.7436 108.785 43.7335 108.883 43.7138C108.98 43.6952 109.075 43.667 109.166 43.6287C109.257 43.5925 109.344 43.5468 109.426 43.4936C109.508 43.4389 109.585 43.3772 109.655 43.3085C109.726 43.2415 109.789 43.166 109.841 43.0841C109.897 43.0033 109.944 42.9177 109.982 42.8278C110.018 42.7379 110.048 42.6454 110.068 42.5507C110.107 42.3593 110.107 42.1619 110.068 41.97C110.048 41.8748 110.019 41.7817 109.982 41.6918C109.944 41.6019 109.897 41.5158 109.841 41.4355C109.788 41.3541 109.725 41.2786 109.655 41.2105C109.585 41.1419 109.508 41.0802 109.426 41.026C109.344 40.9728 109.256 40.9276 109.166 40.8904C109.075 40.8526 108.98 40.8239 108.883 40.8058C108.388 40.7079 107.876 40.8574 107.515 41.2047Z" fill="#2B2F42"/>
<path d="M20.6696 2.97583C32.0658 2.97583 41.338 12.0934 41.338 23.3011C41.3536 27.7348 39.8815 32.0501 37.1495 35.5771C36.6211 36.1403 35.7449 36.2175 35.1236 35.7553C34.5022 35.2937 34.3384 34.4438 34.7451 33.7902C37.0759 30.7801 38.3321 27.0978 38.3197 23.3144C38.3235 18.7105 36.4669 14.2936 33.1583 11.0356C29.8498 7.77766 25.3612 5.94608 20.6789 5.94404C15.9972 5.94191 11.5064 7.76867 8.19454 11.023C4.88268 14.2771 3.02129 18.6924 3.02018 23.2963C3.0191 27.9008 4.87783 32.3165 8.18803 35.5729C11.4982 38.8287 15.988 40.6582 20.6701 40.6582H35.2455C36.0302 40.7226 105.576 41.4464 105.576 42.2206C105.576 42.9944 36.0302 43.5608 35.2455 43.6256H20.6688C9.2726 43.6256 0.000434875 34.5081 0.000434875 23.3004C0.000434875 12.0934 9.27246 2.9751 20.6688 2.9751L20.6696 2.97583Z" fill="#2B2F42"/>
<path d="M21.5185 34.3107C19.0245 34.3107 17.0322 33.7517 15.5415 32.6337C14.0509 31.5157 13.3055 30.0537 13.3055 28.2477V27.9037C13.3055 27.7604 13.3485 27.6457 13.4345 27.5597C13.5492 27.4451 13.6782 27.3877 13.8215 27.3877H17.5625C17.7059 27.3877 17.8205 27.4451 17.9065 27.5597C18.0212 27.6457 18.0785 27.7604 18.0785 27.9037V28.0327C18.0785 28.7207 18.4082 29.3227 19.0675 29.8387C19.7269 30.3261 20.5439 30.5697 21.5185 30.5697C22.4645 30.5697 23.2242 30.3404 23.7975 29.8817C24.3995 29.4231 24.7005 28.8497 24.7005 28.1617C24.7005 27.4737 24.3995 26.9434 23.7975 26.5707C23.2242 26.1981 22.3212 25.7967 21.0885 25.3667L19.9705 24.9797C18.0212 24.3491 16.4589 23.5607 15.2835 22.6147C14.1082 21.6401 13.5205 20.2067 13.5205 18.3147C13.5205 16.3081 14.2372 14.7314 15.6705 13.5847C17.1039 12.4094 18.9959 11.8217 21.3465 11.8217C23.7832 11.8217 25.7182 12.4237 27.1515 13.6277C28.6135 14.8031 29.3445 16.3797 29.3445 18.3577V18.4007C29.3445 18.5441 29.2872 18.6731 29.1725 18.7877C29.0865 18.8737 28.9719 18.9167 28.8285 18.9167H25.2165C25.0732 18.9167 24.9442 18.8737 24.8295 18.7877C24.7435 18.6731 24.7005 18.5441 24.7005 18.4007V18.2287C24.7005 17.5121 24.3995 16.9244 23.7975 16.4657C23.1955 15.9784 22.4072 15.7347 21.4325 15.7347C20.4865 15.7347 19.7269 15.9641 19.1535 16.4227C18.5802 16.8527 18.2935 17.4117 18.2935 18.0997C18.2935 18.6444 18.4942 19.1031 18.8955 19.4757C19.2969 19.8197 19.7412 20.0921 20.2285 20.2927C20.7445 20.4934 21.6332 20.8087 22.8945 21.2387C24.2419 21.6974 25.3742 22.1704 26.2915 22.6577C27.2375 23.1451 28.0402 23.8187 28.6995 24.6787C29.3589 25.5387 29.6885 26.6281 29.6885 27.9467C29.6885 29.9247 28.9432 31.4871 27.4525 32.6337C25.9905 33.7517 24.0125 34.3107 21.5185 34.3107Z" fill="#2B2F42"/>
<path d="M53.2191 15.6108C54.8738 15.6108 56.1658 16.1322 57.0951 17.1748C58.0245 18.2175 58.4891 19.6568 58.4891 21.4928V32.8488C58.4891 32.9622 58.4438 33.0642 58.3531 33.1548C58.2851 33.2228 58.1945 33.2568 58.0811 33.2568H54.9531C54.8398 33.2568 54.7378 33.2228 54.6471 33.1548C54.5791 33.0642 54.5451 32.9622 54.5451 32.8488V22.0368C54.5451 21.1075 54.3071 20.3708 53.8311 19.8268C53.3778 19.2828 52.7545 19.0108 51.9611 19.0108C51.1451 19.0108 50.4878 19.2942 49.9891 19.8608C49.5131 20.4048 49.2751 21.1415 49.2751 22.0708V32.8488C49.2751 32.9622 49.2298 33.0642 49.1391 33.1548C49.0711 33.2228 48.9805 33.2568 48.8671 33.2568H45.7391C45.6258 33.2568 45.5238 33.2228 45.4331 33.1548C45.3651 33.0642 45.3311 32.9622 45.3311 32.8488V9.86484C45.3311 9.7515 45.3651 9.66084 45.4331 9.59283C45.5238 9.50217 45.6258 9.45683 45.7391 9.45683H48.8671C48.9805 9.45683 49.0711 9.50217 49.1391 9.59283C49.2298 9.66084 49.2751 9.7515 49.2751 9.86484V17.1748C49.2751 17.2428 49.2978 17.2882 49.3431 17.3108C49.3885 17.3335 49.4338 17.3108 49.4791 17.2428C50.3858 16.1548 51.6325 15.6108 53.2191 15.6108ZM62.8143 13.5028C62.1116 13.5028 61.5336 13.2762 61.0803 12.8228C60.6496 12.3695 60.4343 11.7915 60.4343 11.0888C60.4343 10.3862 60.6496 9.80817 61.0803 9.35484C61.5336 8.9015 62.1116 8.67483 62.8143 8.67483C63.5396 8.67483 64.1176 8.9015 64.5483 9.35484C65.0016 9.7855 65.2283 10.3635 65.2283 11.0888C65.2283 11.7915 65.0016 12.3695 64.5483 12.8228C64.095 13.2762 63.517 13.5028 62.8143 13.5028ZM61.2503 33.2568C61.137 33.2568 61.035 33.2228 60.9443 33.1548C60.8763 33.0642 60.8423 32.9622 60.8423 32.8488V16.2568C60.8423 16.1435 60.8763 16.0528 60.9443 15.9848C61.035 15.8942 61.137 15.8488 61.2503 15.8488H64.3783C64.4916 15.8488 64.5823 15.8942 64.6503 15.9848C64.741 16.0528 64.7863 16.1435 64.7863 16.2568V32.8488C64.7863 32.9622 64.741 33.0642 64.6503 33.1548C64.5823 33.2228 64.4916 33.2568 64.3783 33.2568H61.2503ZM75.2022 15.6108C76.8569 15.6108 78.1489 16.1322 79.0782 17.1748C80.0076 18.2175 80.4722 19.6568 80.4722 21.4928V32.8488C80.4722 32.9622 80.4269 33.0642 80.3362 33.1548C80.2682 33.2228 80.1776 33.2568 80.0642 33.2568H76.9362C76.8229 33.2568 76.7209 33.2228 76.6302 33.1548C76.5622 33.0642 76.5282 32.9622 76.5282 32.8488V22.0368C76.5282 21.1075 76.2902 20.3708 75.8142 19.8268C75.3609 19.2828 74.7376 19.0108 73.9442 19.0108C73.1282 19.0108 72.4709 19.2942 71.9722 19.8608C71.4962 20.4048 71.2582 21.1415 71.2582 22.0708V32.8488C71.2582 32.9622 71.2129 33.0642 71.1222 33.1548C71.0542 33.2228 70.9636 33.2568 70.8502 33.2568H67.7222C67.6089 33.2568 67.5069 33.2228 67.4162 33.1548C67.3482 33.0642 67.3142 32.9622 67.3142 32.8488V16.2908C67.3142 16.1775 67.3482 16.0868 67.4162 16.0188C67.5069 15.9282 67.6089 15.8828 67.7222 15.8828H70.8502C70.9636 15.8828 71.0542 15.9282 71.1222 16.0188C71.2129 16.0868 71.2582 16.1775 71.2582 16.2908V17.1748C71.2582 17.2428 71.2809 17.2882 71.3262 17.3108C71.3716 17.3335 71.4169 17.3108 71.4622 17.2428C72.3689 16.1548 73.6156 15.6108 75.2022 15.6108ZM95.815 21.6628C95.883 22.4108 95.917 23.2722 95.917 24.2468L95.883 25.7088C95.883 25.9808 95.747 26.1168 95.475 26.1168H86.363C86.2497 26.1168 86.193 26.1735 86.193 26.2868C86.2383 26.9215 86.2837 27.3862 86.329 27.6808C86.4423 28.4288 86.7597 29.0295 87.281 29.4828C87.8023 29.9362 88.4597 30.1628 89.253 30.1628C89.933 30.1402 90.4997 29.9702 90.953 29.6528C91.429 29.3355 91.7917 28.8935 92.041 28.3268C92.1543 28.0775 92.3243 27.9868 92.551 28.0548L95.339 28.6328C95.611 28.7235 95.7017 28.8935 95.611 29.1428C95.1577 30.5482 94.3757 31.6362 93.265 32.4068C92.177 33.1548 90.8397 33.5288 89.253 33.5288C87.3717 33.5288 85.8643 33.0755 84.731 32.1688C83.5977 31.2622 82.861 30.0042 82.521 28.3948C82.4077 27.7828 82.3283 27.1368 82.283 26.4568C82.2603 25.7768 82.249 24.8702 82.249 23.7368C82.249 22.5582 82.3057 21.6628 82.419 21.0508C82.6457 19.3962 83.3483 18.0815 84.527 17.1068C85.7057 16.1095 87.2017 15.6108 89.015 15.6108C90.987 15.6108 92.5737 16.1662 93.775 17.2768C94.999 18.3875 95.679 19.8495 95.815 21.6628ZM89.049 19.0108C88.301 19.0108 87.6777 19.2375 87.179 19.6908C86.703 20.1215 86.4083 20.7108 86.295 21.4588C86.227 21.9575 86.193 22.5242 86.193 23.1588C86.193 23.2722 86.2497 23.3288 86.363 23.3288H91.769C91.8823 23.3288 91.939 23.2722 91.939 23.1588C91.8937 22.3882 91.8483 21.8328 91.803 21.4928C91.7123 20.7448 91.4177 20.1442 90.919 19.6908C90.4203 19.2375 89.797 19.0108 89.049 19.0108Z" fill="#2B2F42"/>
</svg>
