<svg width="18" height="18" viewBox="0 0 18 18" fill="none" xmlns="http://www.w3.org/2000/svg">
<path d="M13.6053 16.2148C12.9453 16.4098 12.1653 16.4998 11.2503 16.4998H6.75026C5.83526 16.4998 5.05526 16.4098 4.39526 16.2148C4.56026 14.2648 6.56276 12.7273 9.00026 12.7273C11.4378 12.7273 13.4403 14.2648 13.6053 16.2148Z" stroke="#7166F9" stroke-width="1.6" stroke-linecap="round" stroke-linejoin="round"/>
<path d="M11.25 1.5H6.75C3 1.5 1.5 3 1.5 6.75V11.25C1.5 14.085 2.355 15.6375 4.395 16.215C4.56 14.265 6.5625 12.7275 9 12.7275C11.4375 12.7275 13.44 14.265 13.605 16.215C15.645 15.6375 16.5 14.085 16.5 11.25V6.75C16.5 3 15 1.5 11.25 1.5ZM9 10.6275C7.515 10.6275 6.315 9.42001 6.315 7.93501C6.315 6.45001 7.515 5.25 9 5.25C10.485 5.25 11.685 6.45001 11.685 7.93501C11.685 9.42001 10.485 10.6275 9 10.6275Z" stroke="#7166F9" stroke-width="1.6" stroke-linecap="round" stroke-linejoin="round"/>
<path d="M11.6851 7.93501C11.6851 9.42001 10.4851 10.6275 9.00006 10.6275C7.51506 10.6275 6.31506 9.42001 6.31506 7.93501C6.31506 6.45001 7.51506 5.25 9.00006 5.25C10.4851 5.25 11.6851 6.45001 11.6851 7.93501Z" stroke="#7166F9" stroke-width="1.6" stroke-linecap="round" stroke-linejoin="round"/>
</svg>
