<svg width="18" height="18" viewBox="0 0 18 18" fill="none" xmlns="http://www.w3.org/2000/svg">
<path d="M6.86968 8.1525C6.79468 8.145 6.70468 8.145 6.62218 8.1525C4.83718 8.0925 3.41968 6.63 3.41968 4.83C3.41968 2.9925 4.90468 1.5 6.74968 1.5C8.58718 1.5 10.0797 2.9925 10.0797 4.83C10.0722 6.63 8.65468 8.0925 6.86968 8.1525Z" stroke="#647895" stroke-width="1.6" stroke-linecap="round" stroke-linejoin="round"/>
<path d="M12.3077 3C13.7627 3 14.9327 4.1775 14.9327 5.625C14.9327 7.0425 13.8077 8.1975 12.4052 8.25C12.3452 8.2425 12.2777 8.2425 12.2102 8.25" stroke="#647895" stroke-width="1.6" stroke-linecap="round" stroke-linejoin="round"/>
<path d="M3.11979 10.92C1.30479 12.135 1.30479 14.115 3.11979 15.3225C5.18229 16.7025 8.5648 16.7025 10.6273 15.3225C12.4423 14.1075 12.4423 12.1275 10.6273 10.92C8.5723 9.5475 5.18979 9.5475 3.11979 10.92Z" stroke="#647895" stroke-width="1.6" stroke-linecap="round" stroke-linejoin="round"/>
<path d="M13.755 15C14.295 14.8875 14.805 14.67 15.225 14.3475C16.395 13.47 16.395 12.0225 15.225 11.145C14.8125 10.83 14.31 10.62 13.7775 10.5" stroke="#647895" stroke-width="1.6" stroke-linecap="round" stroke-linejoin="round"/>
</svg>
