<svg width="18" height="18" viewBox="0 0 18 18" fill="none" xmlns="http://www.w3.org/2000/svg">
<path d="M9 16.5C13.1421 16.5 16.5 13.1421 16.5 9C16.5 4.85786 13.1421 1.5 9 1.5C4.85786 1.5 1.5 4.85786 1.5 9C1.5 13.1421 4.85786 16.5 9 16.5Z" stroke="#647895" stroke-width="1.6" stroke-linecap="round" stroke-linejoin="round"/>
<path d="M6.00757 10.8825C6.14257 11.1075 6.30756 11.3175 6.49506 11.505C7.87506 12.885 10.1176 12.885 11.5051 11.505C12.0676 10.9425 12.3901 10.23 12.4951 9.50249" stroke="#647895" stroke-width="1.6" stroke-linecap="round" stroke-linejoin="round"/>
<path d="M5.505 8.49751C5.61 7.76251 5.93251 7.05748 6.49501 6.49498C7.87501 5.11498 10.1175 5.11498 11.505 6.49498C11.7 6.68998 11.8575 6.89999 11.9925 7.11749" stroke="#647895" stroke-width="1.6" stroke-linecap="round" stroke-linejoin="round"/>
<path d="M5.86499 12.885V10.8825H7.86748" stroke="#647895" stroke-width="1.6" stroke-linecap="round" stroke-linejoin="round"/>
<path d="M12.1351 5.11501V7.11749H10.1326" stroke="#647895" stroke-width="1.6" stroke-linecap="round" stroke-linejoin="round"/>
</svg>
