<svg width="18" height="18" viewBox="0 0 18 18" fill="none" xmlns="http://www.w3.org/2000/svg">
<path d="M9.01543 2.18262C6.53293 2.18262 4.51543 4.20012 4.51543 6.68262V8.85012C4.51543 9.30762 4.32043 10.0051 4.08793 10.3951L3.22543 11.8276C2.69293 12.7126 3.06043 13.6951 4.03543 14.0251C7.26793 15.1051 10.7554 15.1051 13.9879 14.0251C14.8954 13.7251 15.2929 12.6526 14.7979 11.8276L13.9354 10.3951C13.7104 10.0051 13.5154 9.30762 13.5154 8.85012V6.68262C13.5154 4.20762 11.4904 2.18262 9.01543 2.18262Z" stroke="#2B2F42" stroke-width="1.6" stroke-miterlimit="10" stroke-linecap="round"/>
<path d="M10.4026 2.40002C10.1701 2.33252 9.93006 2.28002 9.68256 2.25002C8.96256 2.16002 8.27256 2.21252 7.62756 2.40002C7.84506 1.84502 8.38506 1.45502 9.01506 1.45502C9.64506 1.45502 10.1851 1.84502 10.4026 2.40002Z" stroke="#2B2F42" stroke-width="1.6" stroke-miterlimit="10" stroke-linecap="round" stroke-linejoin="round"/>
<path d="M11.2646 14.295C11.2646 15.5325 10.2521 16.545 9.01465 16.545C8.39965 16.545 7.82965 16.29 7.42465 15.885C7.01965 15.48 6.76465 14.91 6.76465 14.295" stroke="#2B2F42" stroke-width="1.6" stroke-miterlimit="10"/>
</svg>
