<svg width="18" height="18" viewBox="0 0 18 18" fill="none" xmlns="http://www.w3.org/2000/svg">
<path d="M6.75 16.5H11.25C15 16.5 16.5 15 16.5 11.25V6.75C16.5 3 15 1.5 11.25 1.5H6.75C3 1.5 1.5 3 1.5 6.75V11.25C1.5 15 3 16.5 6.75 16.5Z" stroke="#7166F9" stroke-width="1.5" stroke-linecap="round" stroke-linejoin="round"/>
<path d="M13.4247 6.78746C11.7897 6.62246 10.1397 6.53996 8.4972 6.53996C7.5222 6.53996 6.5472 6.59245 5.5797 6.68995L4.57471 6.78746" stroke="#7166F9" stroke-width="1.5" stroke-linecap="round" stroke-linejoin="round"/>
<path d="M7.28174 6.29245L7.38674 5.64745C7.46174 5.18245 7.52173 4.82996 8.35423 4.82996H9.64423C10.4767 4.82996 10.5367 5.19745 10.6117 5.64745L10.7167 6.28496" stroke="#7166F9" stroke-width="1.5" stroke-linecap="round" stroke-linejoin="round"/>
<path d="M12.3675 6.84741L12.045 11.7974C11.9925 12.5699 11.9475 13.1699 10.575 13.1699H7.4175C6.045 13.1699 5.99999 12.5699 5.94749 11.7974L5.625 6.84741" stroke="#7166F9" stroke-width="1.5" stroke-linecap="round" stroke-linejoin="round"/>
</svg>
