<svg width="18" height="18" viewBox="0 0 18 18" fill="none" xmlns="http://www.w3.org/2000/svg">
<path d="M13.0125 6.7875L11.2575 12.4425C10.8375 13.785 8.95498 13.8075 8.51248 12.4725L7.98748 10.92C7.84498 10.4925 7.50748 10.1475 7.07998 10.0125L5.51998 9.48749C4.19248 9.04499 4.21498 7.1475 5.55748 6.7425L11.2125 4.98C12.3225 4.6425 13.365 5.685 13.0125 6.7875Z" stroke="#F6F6FB" stroke-width="1.6" stroke-linecap="round" stroke-linejoin="round"/>
<path d="M6.75 16.5H11.25C15 16.5 16.5 15 16.5 11.25V6.75C16.5 3 15 1.5 11.25 1.5H6.75C3 1.5 1.5 3 1.5 6.75V11.25C1.5 15 3 16.5 6.75 16.5Z" stroke="#F6F6FB" stroke-width="1.6" stroke-linecap="round" stroke-linejoin="round"/>
</svg>
