<svg width="41" height="30" viewBox="0 0 41 30" fill="none" xmlns="http://www.w3.org/2000/svg">
<path d="M33.812 0.0999997C33.8353 0.0999997 33.854 0.109333 33.868 0.128C33.8866 0.142 33.896 0.160667 33.896 0.184V0.723C33.896 0.746333 33.8866 0.767333 33.868 0.786C33.854 0.8 33.8353 0.807 33.812 0.807H32.727C32.7036 0.807 32.692 0.818666 32.692 0.842V4.916C32.692 4.93933 32.6826 4.96033 32.664 4.979C32.65 4.993 32.6313 5 32.608 5H31.964C31.9406 5 31.9196 4.993 31.901 4.979C31.887 4.96033 31.88 4.93933 31.88 4.916V0.842C31.88 0.818666 31.8683 0.807 31.845 0.807H30.802C30.7786 0.807 30.7576 0.8 30.739 0.786C30.725 0.767333 30.718 0.746333 30.718 0.723V0.184C30.718 0.160667 30.725 0.142 30.739 0.128C30.7576 0.109333 30.7786 0.0999997 30.802 0.0999997H33.812ZM37.2324 0.156C37.251 0.118666 37.2837 0.0999997 37.3304 0.0999997H37.9814C38.0047 0.0999997 38.0234 0.109333 38.0374 0.128C38.056 0.142 38.0654 0.160667 38.0654 0.184V4.916C38.0654 4.93933 38.056 4.96033 38.0374 4.979C38.0234 4.993 38.0047 5 37.9814 5H37.3374C37.314 5 37.293 4.993 37.2744 4.979C37.2604 4.96033 37.2534 4.93933 37.2534 4.916V1.598C37.2534 1.57933 37.2487 1.57 37.2394 1.57C37.23 1.56533 37.2207 1.57 37.2114 1.584L36.4694 2.809C36.4507 2.84633 36.418 2.865 36.3714 2.865H36.2384C36.1917 2.865 36.159 2.84633 36.1404 2.809L35.3984 1.591C35.389 1.577 35.3797 1.57233 35.3704 1.577C35.361 1.577 35.3564 1.58633 35.3564 1.605V4.916C35.3564 4.93933 35.347 4.96033 35.3284 4.979C35.3144 4.993 35.2957 5 35.2724 5H34.6284C34.605 5 34.584 4.993 34.5654 4.979C34.5514 4.96033 34.5444 4.93933 34.5444 4.916V0.184C34.5444 0.160667 34.5514 0.142 34.5654 0.128C34.584 0.109333 34.605 0.0999997 34.6284 0.0999997H35.2724C35.319 0.0999997 35.3517 0.118666 35.3704 0.156L36.2874 1.619C36.3014 1.647 36.3154 1.647 36.3294 1.619L37.2324 0.156Z" fill="#F6F6FB"/>
<g opacity="0.3">
<rect x="10" y="10" width="10.4" height="9" rx="4.5" stroke="#2B2F42" stroke-width="2"/>
<rect x="7" y="7" width="16.4" height="15" rx="7.5" stroke="#2B2F42" stroke-width="2"/>
</g>
<path d="M15.1002 21.156C13.5922 21.156 12.3876 20.818 11.4862 20.142C10.5849 19.466 10.1342 18.582 10.1342 17.49V17.282C10.1342 17.1953 10.1602 17.126 10.2122 17.074C10.2816 17.0047 10.3596 16.97 10.4462 16.97H12.7082C12.7949 16.97 12.8642 17.0047 12.9162 17.074C12.9856 17.126 13.0202 17.1953 13.0202 17.282V17.36C13.0202 17.776 13.2196 18.14 13.6182 18.452C14.0169 18.7467 14.5109 18.894 15.1002 18.894C15.6722 18.894 16.1316 18.7553 16.4782 18.478C16.8422 18.2007 17.0242 17.854 17.0242 17.438C17.0242 17.022 16.8422 16.7013 16.4782 16.476C16.1316 16.2507 15.5856 16.008 14.8402 15.748L14.1642 15.514C12.9856 15.1327 12.0409 14.656 11.3302 14.084C10.6196 13.4947 10.2642 12.628 10.2642 11.484C10.2642 10.2707 10.6976 9.31733 11.5642 8.624C12.4309 7.91333 13.5749 7.558 14.9962 7.558C16.4696 7.558 17.6396 7.922 18.5062 8.65C19.3902 9.36067 19.8322 10.314 19.8322 11.51V11.536C19.8322 11.6227 19.7976 11.7007 19.7282 11.77C19.6762 11.822 19.6069 11.848 19.5202 11.848H17.3362C17.2496 11.848 17.1716 11.822 17.1022 11.77C17.0502 11.7007 17.0242 11.6227 17.0242 11.536V11.432C17.0242 10.9987 16.8422 10.6433 16.4782 10.366C16.1142 10.0713 15.6376 9.924 15.0482 9.924C14.4762 9.924 14.0169 10.0627 13.6702 10.34C13.3236 10.6 13.1502 10.938 13.1502 11.354C13.1502 11.6833 13.2716 11.9607 13.5142 12.186C13.7569 12.394 14.0256 12.5587 14.3202 12.68C14.6322 12.8013 15.1696 12.992 15.9322 13.252C16.7469 13.5293 17.4316 13.8153 17.9862 14.11C18.5582 14.4047 19.0436 14.812 19.4422 15.332C19.8409 15.852 20.0402 16.5107 20.0402 17.308C20.0402 18.504 19.5896 19.4487 18.6882 20.142C17.8042 20.818 16.6082 21.156 15.1002 21.156Z" fill="#F6F6FB"/>
<rect x="4" y="4" width="22.4" height="21" rx="10.5" stroke="#F5F6F8" stroke-width="2"/>
<path d="M38.3251 27.3041C38.2745 27.3537 38.2284 27.407 38.187 27.4641C38.148 27.522 38.1142 27.5829 38.0855 27.6461C38.0585 27.7104 38.0374 27.7766 38.0223 27.8443C38.008 27.9124 38.0008 27.9817 38 28.0509C38 28.332 38.1174 28.6013 38.3263 28.7999C38.5351 28.9985 38.8184 29.1101 39.114 29.1101C39.1869 29.1101 39.2597 29.103 39.3313 29.089C39.4025 29.0757 39.4725 29.0557 39.5394 29.0284C39.6066 29.0027 39.6707 28.9702 39.7311 28.9323C39.7912 28.8934 39.8477 28.8495 39.8994 28.8007C39.9516 28.753 39.9977 28.6993 40.0363 28.641C40.0773 28.5835 40.1123 28.5226 40.1402 28.4587C40.1668 28.3948 40.1883 28.3289 40.2034 28.2616C40.2317 28.1254 40.2317 27.9851 40.2034 27.8485C40.1883 27.7808 40.1672 27.7146 40.1402 27.6506C40.1123 27.5867 40.0773 27.5254 40.0363 27.4683C39.9969 27.4104 39.9512 27.3567 39.8994 27.3083C39.8481 27.2595 39.7916 27.2156 39.7311 27.177C39.6707 27.1392 39.6062 27.107 39.5394 27.0805C39.4725 27.0537 39.4025 27.0333 39.3313 27.0204C38.9672 26.9508 38.5904 27.0571 38.3251 27.3041Z" fill="#F5F6F8"/>
<path d="M15.2066 0C23.5909 0 30.4126 6.48567 30.4126 14.4581C30.4241 17.612 29.3411 20.6816 27.3311 23.1905C26.9424 23.5911 26.2978 23.646 25.8406 23.3173C25.3835 22.9889 25.2629 22.3844 25.5621 21.9194C27.277 19.7782 28.2012 17.1588 28.192 14.4676C28.1948 11.1926 26.8289 8.05076 24.3947 5.73324C21.9606 3.41572 18.6583 2.11285 15.2134 2.1114C11.7691 2.10988 8.4651 3.40932 6.02852 5.72423C3.59194 8.03904 2.22248 11.1798 2.22166 14.4547C2.22087 17.73 3.58837 20.8711 6.02373 23.1875C8.45909 25.5035 11.7623 26.8049 15.207 26.8049H25.9303C26.5076 26.8506 36 27.4487 36 27.9995C36 28.5499 26.5076 28.8696 25.9303 28.9157H15.206C6.82166 28.9157 -9.53672e-07 22.4301 -9.53672e-07 14.4576C-9.53672e-07 6.48563 6.82221 0 15.2066 0Z" fill="#F5F6F8"/>
</svg>
