<svg width="18" height="18" viewBox="0 0 18 18" fill="none" xmlns="http://www.w3.org/2000/svg">
<path d="M6.75 16.5H11.25C15 16.5 16.5 15 16.5 11.25V6.75C16.5 3 15 1.5 11.25 1.5H6.75C3 1.5 1.5 3 1.5 6.75V11.25C1.5 15 3 16.5 6.75 16.5Z" stroke="#F6F6FB" stroke-width="1.6" stroke-linecap="round" stroke-linejoin="round"/>
<path d="M11.6777 13.8751V10.9501" stroke="#F6F6FB" stroke-width="1.6" stroke-miterlimit="10" stroke-linecap="round" stroke-linejoin="round"/>
<path d="M11.6777 5.5875V4.125" stroke="#F6F6FB" stroke-width="1.6" stroke-miterlimit="10" stroke-linecap="round" stroke-linejoin="round"/>
<path d="M11.678 9.48765C12.755 9.48765 13.628 8.6146 13.628 7.53765C13.628 6.46069 12.755 5.58765 11.678 5.58765C10.6011 5.58765 9.72803 6.46069 9.72803 7.53765C9.72803 8.6146 10.6011 9.48765 11.678 9.48765Z" stroke="#F6F6FB" stroke-width="1.6" stroke-miterlimit="10" stroke-linecap="round" stroke-linejoin="round"/>
<path d="M6.32227 13.8749V12.4124" stroke="#F6F6FB" stroke-width="1.6" stroke-miterlimit="10" stroke-linecap="round" stroke-linejoin="round"/>
<path d="M6.32227 7.05V4.125" stroke="#F6F6FB" stroke-width="1.6" stroke-miterlimit="10" stroke-linecap="round" stroke-linejoin="round"/>
<path d="M6.32244 12.4125C7.39939 12.4125 8.27244 11.5395 8.27244 10.4625C8.27244 9.38556 7.39939 8.51251 6.32244 8.51251C5.24548 8.51251 4.37244 9.38556 4.37244 10.4625C4.37244 11.5395 5.24548 12.4125 6.32244 12.4125Z" stroke="#F6F6FB" stroke-width="1.6" stroke-miterlimit="10" stroke-linecap="round" stroke-linejoin="round"/>
</svg>
