<svg width="18" height="18" viewBox="0 0 18 18" fill="none" xmlns="http://www.w3.org/2000/svg">
<path d="M12.7207 4.62753C14.2207 5.67003 15.2557 7.32753 15.4657 9.24003" stroke="#F6F6FB" stroke-width="1.6" stroke-linecap="round" stroke-linejoin="round"/>
<path d="M2.61743 9.27751C2.81243 7.37251 3.83243 5.71501 5.31743 4.66501" stroke="#F6F6FB" stroke-width="1.6" stroke-linecap="round" stroke-linejoin="round"/>
<path d="M6.14209 15.705C7.01209 16.1475 8.00209 16.395 9.04459 16.395C10.0496 16.395 10.9946 16.17 11.8421 15.7575" stroke="#F6F6FB" stroke-width="1.6" stroke-linecap="round" stroke-linejoin="round"/>
<path d="M9.04447 5.77501C10.196 5.77501 11.1295 4.84152 11.1295 3.69001C11.1295 2.5385 10.196 1.60501 9.04447 1.60501C7.89296 1.60501 6.95947 2.5385 6.95947 3.69001C6.95947 4.84152 7.89296 5.77501 9.04447 5.77501Z" stroke="#F6F6FB" stroke-width="1.6" stroke-linecap="round" stroke-linejoin="round"/>
<path d="M3.62309 14.94C4.7746 14.94 5.70809 14.0065 5.70809 12.855C5.70809 11.7035 4.7746 10.77 3.62309 10.77C2.47157 10.77 1.53809 11.7035 1.53809 12.855C1.53809 14.0065 2.47157 14.94 3.62309 14.94Z" stroke="#F6F6FB" stroke-width="1.6" stroke-linecap="round" stroke-linejoin="round"/>
<path d="M14.378 14.94C15.5295 14.94 16.463 14.0065 16.463 12.855C16.463 11.7035 15.5295 10.77 14.378 10.77C13.2265 10.77 12.293 11.7035 12.293 12.855C12.293 14.0065 13.2265 14.94 14.378 14.94Z" stroke="#F6F6FB" stroke-width="1.6" stroke-linecap="round" stroke-linejoin="round"/>
</svg>
