<svg width="103" height="32" viewBox="0 0 103 32" fill="none" xmlns="http://www.w3.org/2000/svg">
<path d="M85.3251 29.3047C85.2745 29.3542 85.2284 29.4076 85.187 29.4647C85.148 29.5226 85.1142 29.5835 85.0855 29.6467C85.0585 29.711 85.0374 29.7772 85.0223 29.8449C85.008 29.913 85.0008 29.9822 85 30.0514C85 30.3325 85.1174 30.6019 85.3263 30.8005C85.5351 30.9991 85.8184 31.1107 86.114 31.1107C86.1869 31.1107 86.2597 31.1035 86.3313 31.0895C86.4025 31.0763 86.4725 31.0562 86.5394 31.029C86.6066 31.0033 86.6707 30.9707 86.7311 30.9329C86.7912 30.8939 86.8477 30.85 86.8994 30.8012C86.9516 30.7536 86.9977 30.6998 87.0363 30.6416C87.0773 30.5841 87.1123 30.5232 87.1402 30.4593C87.1668 30.3953 87.1883 30.3295 87.2034 30.2622C87.2317 30.126 87.2317 29.9856 87.2034 29.849C87.1883 29.7813 87.1672 29.7151 87.1402 29.6512C87.1123 29.5873 87.0773 29.526 87.0363 29.4688C86.9969 29.411 86.9512 29.3573 86.8994 29.3088C86.8481 29.26 86.7916 29.2161 86.7311 29.1776C86.6707 29.1397 86.6062 29.1076 86.5394 29.0811C86.4725 29.0542 86.4025 29.0338 86.3313 29.0209C85.9672 28.9513 85.5904 29.0576 85.3251 29.3047Z" fill="#4CD7F5"/>
<path d="M15.2066 2.00055C23.591 2.00055 30.4126 8.48622 30.4126 16.4587C30.4241 19.6126 29.3411 22.6822 27.3311 25.1911C26.9424 25.5917 26.2978 25.6466 25.8406 25.3178C25.3835 24.9894 25.2629 24.3849 25.5621 23.9199C27.277 21.7788 28.2012 19.1594 28.192 16.4681C28.1948 13.1932 26.8289 10.0513 24.3948 7.73379C21.9606 5.41627 18.6583 4.1134 15.2134 4.11195C11.7691 4.11043 8.46511 5.40987 6.02853 7.72478C3.59194 10.0396 2.22249 13.1803 2.22167 16.4552C2.22088 19.7306 3.58838 22.8717 6.02374 25.188C8.45909 27.504 11.7623 28.8054 15.207 28.8054H25.9303C26.5076 28.8512 84 29.4492 84 30C84 30.5504 26.5076 30.8702 25.9303 30.9163H15.206C6.82167 30.9163 7.62939e-06 24.4306 7.62939e-06 16.4581C7.62939e-06 8.48618 6.82221 2.00055 15.2066 2.00055Z" fill="url(#paint0_linear_3_3)"/>
<g opacity="0.3">
<rect x="10" y="12" width="10" height="9" rx="4.5" stroke="url(#paint1_linear_3_3)" stroke-width="2"/>
<rect x="7" y="9" width="16" height="15" rx="7.5" stroke="url(#paint2_linear_3_3)" stroke-width="2"/>
</g>
<rect x="4" y="6" width="22" height="21" rx="10.5" stroke="url(#paint3_linear_3_3)" stroke-width="2"/>
<path d="M37.902 23.156C36.394 23.156 35.1893 22.818 34.288 22.142C33.3867 21.466 32.936 20.582 32.936 19.49V19.282C32.936 19.1953 32.962 19.126 33.014 19.074C33.0833 19.0047 33.1613 18.97 33.248 18.97H35.51C35.5967 18.97 35.666 19.0047 35.718 19.074C35.7873 19.126 35.822 19.1953 35.822 19.282V19.36C35.822 19.776 36.0213 20.14 36.42 20.452C36.8187 20.7467 37.3127 20.894 37.902 20.894C38.474 20.894 38.9333 20.7553 39.28 20.478C39.644 20.2007 39.826 19.854 39.826 19.438C39.826 19.022 39.644 18.7013 39.28 18.476C38.9333 18.2507 38.3873 18.008 37.642 17.748L36.966 17.514C35.7873 17.1327 34.8427 16.656 34.132 16.084C33.4213 15.4947 33.066 14.628 33.066 13.484C33.066 12.2707 33.4993 11.3173 34.366 10.624C35.2327 9.91333 36.3767 9.558 37.798 9.558C39.2713 9.558 40.4413 9.922 41.308 10.65C42.192 11.3607 42.634 12.314 42.634 13.51V13.536C42.634 13.6227 42.5993 13.7007 42.53 13.77C42.478 13.822 42.4087 13.848 42.322 13.848H40.138C40.0513 13.848 39.9733 13.822 39.904 13.77C39.852 13.7007 39.826 13.6227 39.826 13.536V13.432C39.826 12.9987 39.644 12.6433 39.28 12.366C38.916 12.0713 38.4393 11.924 37.85 11.924C37.278 11.924 36.8187 12.0627 36.472 12.34C36.1253 12.6 35.952 12.938 35.952 13.354C35.952 13.6833 36.0733 13.9607 36.316 14.186C36.5587 14.394 36.8273 14.5587 37.122 14.68C37.434 14.8013 37.9713 14.992 38.734 15.252C39.5487 15.5293 40.2333 15.8153 40.788 16.11C41.36 16.4047 41.8453 16.812 42.244 17.332C42.6427 17.852 42.842 18.5107 42.842 19.308C42.842 20.504 42.3913 21.4487 41.49 22.142C40.606 22.818 39.41 23.156 37.902 23.156ZM49.9995 9.506C51.2648 9.506 52.2528 9.90467 52.9635 10.702C53.6742 11.4993 54.0295 12.6 54.0295 14.004V22.688C54.0295 22.7747 53.9948 22.8527 53.9255 22.922C53.8735 22.974 53.8042 23 53.7175 23H51.3255C51.2388 23 51.1608 22.974 51.0915 22.922C51.0395 22.8527 51.0135 22.7747 51.0135 22.688V14.42C51.0135 13.7093 50.8315 13.146 50.4675 12.73C50.1208 12.314 49.6442 12.106 49.0375 12.106C48.4135 12.106 47.9108 12.3227 47.5295 12.756C47.1655 13.172 46.9835 13.7353 46.9835 14.446V22.688C46.9835 22.7747 46.9488 22.8527 46.8795 22.922C46.8275 22.974 46.7582 23 46.6715 23H44.2795C44.1928 23 44.1148 22.974 44.0455 22.922C43.9935 22.8527 43.9675 22.7747 43.9675 22.688V5.112C43.9675 5.02533 43.9935 4.956 44.0455 4.904C44.1148 4.83467 44.1928 4.8 44.2795 4.8H46.6715C46.7582 4.8 46.8275 4.83467 46.8795 4.904C46.9488 4.956 46.9835 5.02533 46.9835 5.112V10.702C46.9835 10.754 47.0008 10.7887 47.0355 10.806C47.0702 10.8233 47.1048 10.806 47.1395 10.754C47.8328 9.922 48.7862 9.506 49.9995 9.506ZM57.337 7.894C56.7997 7.894 56.3577 7.72067 56.011 7.374C55.6817 7.02733 55.517 6.58533 55.517 6.048C55.517 5.51067 55.6817 5.06867 56.011 4.722C56.3577 4.37533 56.7997 4.202 57.337 4.202C57.8917 4.202 58.3337 4.37533 58.663 4.722C59.0097 5.05133 59.183 5.49333 59.183 6.048C59.183 6.58533 59.0097 7.02733 58.663 7.374C58.3163 7.72067 57.8743 7.894 57.337 7.894ZM56.141 23C56.0543 23 55.9763 22.974 55.907 22.922C55.855 22.8527 55.829 22.7747 55.829 22.688V10C55.829 9.91333 55.855 9.844 55.907 9.792C55.9763 9.72267 56.0543 9.688 56.141 9.688H58.533C58.6197 9.688 58.689 9.72267 58.741 9.792C58.8103 9.844 58.845 9.91333 58.845 10V22.688C58.845 22.7747 58.8103 22.8527 58.741 22.922C58.689 22.974 58.6197 23 58.533 23H56.141ZM66.8101 9.506C68.0755 9.506 69.0635 9.90467 69.7741 10.702C70.4848 11.4993 70.8401 12.6 70.8401 14.004V22.688C70.8401 22.7747 70.8055 22.8527 70.7361 22.922C70.6841 22.974 70.6148 23 70.5281 23H68.1361C68.0495 23 67.9715 22.974 67.9021 22.922C67.8501 22.8527 67.8241 22.7747 67.8241 22.688V14.42C67.8241 13.7093 67.6421 13.146 67.2781 12.73C66.9315 12.314 66.4548 12.106 65.8481 12.106C65.2241 12.106 64.7215 12.3227 64.3401 12.756C63.9761 13.172 63.7941 13.7353 63.7941 14.446V22.688C63.7941 22.7747 63.7595 22.8527 63.6901 22.922C63.6381 22.974 63.5688 23 63.4821 23H61.0901C61.0035 23 60.9255 22.974 60.8561 22.922C60.8041 22.8527 60.7781 22.7747 60.7781 22.688V10.026C60.7781 9.93933 60.8041 9.87 60.8561 9.818C60.9255 9.74867 61.0035 9.714 61.0901 9.714H63.4821C63.5688 9.714 63.6381 9.74867 63.6901 9.818C63.7595 9.87 63.7941 9.93933 63.7941 10.026V10.702C63.7941 10.754 63.8115 10.7887 63.8461 10.806C63.8808 10.8233 63.9155 10.806 63.9501 10.754C64.6435 9.922 65.5968 9.506 66.8101 9.506ZM82.5728 14.134C82.6248 14.706 82.6508 15.3647 82.6508 16.11L82.6248 17.228C82.6248 17.436 82.5208 17.54 82.3128 17.54H75.3448C75.2582 17.54 75.2148 17.5833 75.2148 17.67C75.2495 18.1553 75.2842 18.5107 75.3188 18.736C75.4055 19.308 75.6482 19.7673 76.0468 20.114C76.4455 20.4607 76.9482 20.634 77.5548 20.634C78.0748 20.6167 78.5082 20.4867 78.8548 20.244C79.2188 20.0013 79.4962 19.6633 79.6868 19.23C79.7735 19.0393 79.9035 18.97 80.0768 19.022L82.2088 19.464C82.4168 19.5333 82.4862 19.6633 82.4168 19.854C82.0702 20.9287 81.4722 21.7607 80.6228 22.35C79.7908 22.922 78.7682 23.208 77.5548 23.208C76.1162 23.208 74.9635 22.8613 74.0968 22.168C73.2302 21.4747 72.6668 20.5127 72.4068 19.282C72.3202 18.814 72.2595 18.32 72.2248 17.8C72.2075 17.28 72.1988 16.5867 72.1988 15.72C72.1988 14.8187 72.2422 14.134 72.3288 13.666C72.5022 12.4007 73.0395 11.3953 73.9408 10.65C74.8422 9.88733 75.9862 9.506 77.3728 9.506C78.8808 9.506 80.0942 9.93067 81.0128 10.78C81.9488 11.6293 82.4688 12.7473 82.5728 14.134ZM77.3988 12.106C76.8268 12.106 76.3502 12.2793 75.9688 12.626C75.6048 12.9553 75.3795 13.406 75.2928 13.978C75.2408 14.3593 75.2148 14.7927 75.2148 15.278C75.2148 15.3647 75.2582 15.408 75.3448 15.408H79.4788C79.5655 15.408 79.6088 15.3647 79.6088 15.278C79.5742 14.6887 79.5395 14.264 79.5048 14.004C79.4355 13.432 79.2102 12.9727 78.8288 12.626C78.4475 12.2793 77.9708 12.106 77.3988 12.106Z" fill="#F6F6FB"/>
<path d="M81.812 2.1C81.8353 2.1 81.854 2.10933 81.868 2.128C81.8866 2.142 81.896 2.16067 81.896 2.184V2.723C81.896 2.74633 81.8866 2.76733 81.868 2.786C81.854 2.8 81.8353 2.807 81.812 2.807H80.727C80.7036 2.807 80.692 2.81867 80.692 2.842V6.916C80.692 6.93933 80.6826 6.96033 80.664 6.979C80.65 6.993 80.6313 7 80.608 7H79.964C79.9406 7 79.9196 6.993 79.901 6.979C79.887 6.96033 79.88 6.93933 79.88 6.916V2.842C79.88 2.81867 79.8683 2.807 79.845 2.807H78.802C78.7786 2.807 78.7576 2.8 78.739 2.786C78.725 2.76733 78.718 2.74633 78.718 2.723V2.184C78.718 2.16067 78.725 2.142 78.739 2.128C78.7576 2.10933 78.7786 2.1 78.802 2.1H81.812ZM85.2324 2.156C85.251 2.11867 85.2837 2.1 85.3304 2.1H85.9814C86.0047 2.1 86.0234 2.10933 86.0374 2.128C86.056 2.142 86.0654 2.16067 86.0654 2.184V6.916C86.0654 6.93933 86.056 6.96033 86.0374 6.979C86.0234 6.993 86.0047 7 85.9814 7H85.3374C85.314 7 85.293 6.993 85.2744 6.979C85.2604 6.96033 85.2534 6.93933 85.2534 6.916V3.598C85.2534 3.57933 85.2487 3.57 85.2394 3.57C85.23 3.56533 85.2207 3.57 85.2114 3.584L84.4694 4.809C84.4507 4.84633 84.418 4.865 84.3714 4.865H84.2384C84.1917 4.865 84.159 4.84633 84.1404 4.809L83.3984 3.591C83.389 3.577 83.3797 3.57233 83.3704 3.577C83.361 3.577 83.3564 3.58633 83.3564 3.605V6.916C83.3564 6.93933 83.347 6.96033 83.3284 6.979C83.3144 6.993 83.2957 7 83.2724 7H82.6284C82.605 7 82.584 6.993 82.5654 6.979C82.5514 6.96033 82.5444 6.93933 82.5444 6.916V2.184C82.5444 2.16067 82.5514 2.142 82.5654 2.128C82.584 2.10933 82.605 2.1 82.6284 2.1H83.2724C83.319 2.1 83.3517 2.11867 83.3704 2.156L84.2874 3.619C84.3014 3.647 84.3154 3.647 84.3294 3.619L85.2324 2.156Z" fill="#F6F6FB"/>
<defs>
<linearGradient id="paint0_linear_3_3" x1="15.2064" y1="2" x2="15.2064" y2="30.9162" gradientUnits="userSpaceOnUse">
<stop stop-color="#7166F9"/>
<stop offset="0.505208" stop-color="#4CD7F5"/>
<stop offset="1" stop-color="#4CD7F5"/>
</linearGradient>
<linearGradient id="paint1_linear_3_3" x1="15" y1="11" x2="15" y2="22" gradientUnits="userSpaceOnUse">
<stop stop-color="#7166F9"/>
<stop offset="1" stop-color="#4CD7F5"/>
</linearGradient>
<linearGradient id="paint2_linear_3_3" x1="15" y1="8" x2="15" y2="25" gradientUnits="userSpaceOnUse">
<stop stop-color="#7166F9"/>
<stop offset="1" stop-color="#4CD7F5"/>
</linearGradient>
<linearGradient id="paint3_linear_3_3" x1="15" y1="5" x2="15" y2="28" gradientUnits="userSpaceOnUse">
<stop stop-color="#7166F9"/>
<stop offset="1" stop-color="#4CD7F5"/>
</linearGradient>
</defs>
</svg>
