<svg width="7" height="22" viewBox="0 0 7 22" fill="none" xmlns="http://www.w3.org/2000/svg">
<path d="M1.55566 18.7778C1.55566 20 2.55566 21 3.77789 21C5.00011 21 6.00011 20 6.00011 18.7778C6.00011 17.5556 5.00011 16.5556 3.77789 16.5556C2.55566 16.5556 1.55566 17.5556 1.55566 18.7778Z" stroke="#2B2F42" stroke-width="1.5"/>
<path d="M1.55566 3.22211C1.55566 4.44434 2.55566 5.44434 3.77789 5.44434C5.00011 5.44434 6.00011 4.44434 6.00011 3.22211C6.00011 1.99989 5.00011 0.999891 3.77789 0.999891C2.55566 0.999891 1.55566 1.99989 1.55566 3.22211Z" stroke="#2B2F42" stroke-width="1.5"/>
<path d="M1.55566 10.9999C1.55566 12.2222 2.55566 13.2222 3.77789 13.2222C5.00011 13.2222 6.00011 12.2222 6.00011 10.9999C6.00011 9.77772 5.00011 8.77772 3.77789 8.77772C2.55566 8.77772 1.55566 9.77772 1.55566 10.9999Z" stroke="#2B2F42" stroke-width="1.5"/>
</svg>
