<svg width="18" height="22" viewBox="0 0 18 22" fill="none" xmlns="http://www.w3.org/2000/svg">
<path d="M8.99796 1.96436C5.70771 1.96436 3.03376 4.6383 3.03376 7.92855V10.8013C3.03376 11.4077 2.77531 12.3321 2.46716 12.849L1.32402 14.7476C0.618259 15.9206 1.10533 17.2228 2.39758 17.6601C6.68186 19.0915 11.3041 19.0915 15.5884 17.6601C16.7912 17.2625 17.318 15.8411 16.6619 14.7476L15.5188 12.849C15.2206 12.3321 14.9622 11.4077 14.9622 10.8013V7.92855C14.9622 4.64824 12.2783 1.96436 8.99796 1.96436Z" stroke="#2B2F42" stroke-width="1.5" stroke-miterlimit="10" stroke-linecap="round"/>
<path d="M10.8361 2.25248C10.528 2.16302 10.2099 2.09344 9.88185 2.05367C8.92758 1.93439 8.01307 2.00397 7.1582 2.25248C7.44647 1.5169 8.16218 1 8.99716 1C9.83215 1 10.5479 1.5169 10.8361 2.25248Z" stroke="#2B2F42" stroke-width="1.5" stroke-miterlimit="10" stroke-linecap="round" stroke-linejoin="round"/>
<path d="M11.9788 18.0181C11.9788 19.6582 10.6369 21.0002 8.99675 21.0002C8.18164 21.0002 7.42617 20.6622 6.8894 20.1254C6.35262 19.5886 6.01465 18.8332 6.01465 18.0181" stroke="#2B2F42" stroke-width="1.5" stroke-miterlimit="10"/>
</svg>
